<svg width="107.58mm" height="74.916mm" version="1.1" viewBox="0 0 107.58 74.916" xml:space="preserve" xmlns="http://www.w3.org/2000/svg"><g transform="translate(-7.5499 8.8289)" fill="none" stroke="#f9a30d" stroke-width=".34396"><path d="m91.303 62.575-5e-3 -1.7774-1.7589 0.06147m-62.319-25.912 1.5491 0.87149 0.8132-1.5608m29.822 12.022c15.402 47.411 68.834-2.738 10.876-27.998-56.563-24.652-52.626 43.5-10.876 27.998" stroke-linecap="round" stroke-linejoin="round" stroke-opacity=".4" style="paint-order:markers stroke fill"/><path d="m87.45-6.4722-1.7454 0.33601 0.38804 1.7166m-26.688 50.699c4.728-1.7555 9.9299-4.6224 15.595-8.7799 55.688-40.869-27.02-76.623-18.64-5.784 0.66672 5.6368 1.7141 10.465 3.0457 14.564z" style="paint-order:markers stroke fill"/></g><text x="89.130585" y="70.579086" fill="#f9a30d" fill-opacity=".4" font-family="'MonaspiceNe Nerd Font'" font-size="2.6458px" stroke-width=".26458" xml:space="preserve"><tspan x="89.130585" y="70.579086" fill="#f9a30d" fill-opacity=".4" stroke-width=".26458">$\gamma_2$</tspan></text><text x="-0.13493234" y="15.912019" fill="#000000" font-family="'MonaspiceNe Nerd Font'" font-size="2.6458px" stroke-width=".26458" xml:space="preserve"><tspan x="-0.13493234" y="15.912019" stroke-width=".26458">$\gamma = \gamma_1 \concat \gamma_2$</tspan></text><text x="91.310219" y="10.857047" fill="#f9a30d" font-family="'MonaspiceNe Nerd Font'" font-size="2.6458px" stroke-width=".26458" xml:space="preserve"><tspan x="91.310219" y="10.857047" fill="#f9a30d" stroke-width=".26458">$\gamma_1$</tspan></text></svg>
