<svg width="72.449mm" height="66.714mm" version="1.1" viewBox="0 0 72.449 66.714" xml:space="preserve" xmlns="http://www.w3.org/2000/svg"><path d="m4.7563 61.588 27.512-56.78 31.805 40z" fill="none" stroke="#000" stroke-linecap="round" stroke-linejoin="round" stroke-width=".34396" style="paint-order:markers stroke fill"/><path d="m46.316 24.447 0.12577-1.8143m1.8143 0.12577-1.8143-0.12577" fill="none" stroke="#000" stroke-linecap="round" stroke-linejoin="round" stroke-width=".34396" style="paint-order:markers stroke fill"/><path d="m35.903 51.446 1.5911 0.88081m-0.88081 1.5911 0.88081-1.5911" fill="none" stroke="#000" stroke-linecap="round" stroke-linejoin="round" stroke-width=".34396" style="paint-order:markers stroke fill"/><path d="m21.436 29.971-1.6881 0.67668m-0.67668-1.6881 0.67668 1.6881" fill="none" stroke="#000" stroke-linecap="round" stroke-linejoin="round" stroke-width=".34396" style="paint-order:markers stroke fill"/><text x="-0.13493234" y="66.202187" fill="#000000" font-family="'MonaspiceNe Nerd Font'" font-size="2.6458px" stroke-width=".26458" xml:space="preserve"><tspan x="-0.13493234" y="66.202187" stroke-width=".26458">$p$</tspan></text><text x="29.835051" y="2.3388844" fill="#000000" font-family="'MonaspiceNe Nerd Font'" font-size="2.6458px" stroke-width=".26458" xml:space="preserve"><tspan x="29.835051" y="2.3388844" stroke-width=".26458">$z_3$</tspan></text><text x="64.382256" y="49.636963" fill="#000000" font-family="'MonaspiceNe Nerd Font'" font-size="2.6458px" stroke-width=".26458" xml:space="preserve"><tspan x="64.382256" y="49.636963" stroke-width=".26458">$z_2$</tspan></text><text x="7.9502878" y="22.391523" fill="#000000" font-family="'MonaspiceNe Nerd Font'" font-size="2.6458px" stroke-width=".26458" xml:space="preserve"><tspan x="7.9502878" y="22.391523" stroke-width=".26458">$T_0$</tspan></text><circle cx="4.7903" cy="61.643" r=".5994" style="paint-order:markers stroke fill"/><circle cx="64.106" cy="44.817" r=".5994" style="paint-order:markers stroke fill"/><circle cx="32.265" cy="4.8999" r=".5994" style="paint-order:markers stroke fill"/><text x="24.286127" y="59.430218" fill="#000000" font-family="'MonaspiceNe Nerd Font'" font-size="2.6458px" stroke-width=".26458" xml:space="preserve"><tspan x="24.286127" y="59.430218" stroke-width=".26458">$z_{1,2}$</tspan></text><text x="8.9826288" y="36.788994" fill="#000000" font-family="'MonaspiceNe Nerd Font'" font-size="2.6458px" stroke-width=".26458" xml:space="preserve"><tspan x="8.9826288" y="36.788994" stroke-width=".26458">$z_{3,1}$</tspan></text><circle cx="16.293" cy="37.812" r=".5994" style="paint-order:markers stroke fill"/><circle cx="28.207" cy="54.933" r=".5994" style="paint-order:markers stroke fill"/><text x="38.667343" y="38.496403" fill="#000000" font-family="'MonaspiceNe Nerd Font'" font-size="2.6458px" stroke-width=".26458" xml:space="preserve"><tspan x="38.667343" y="38.496403" stroke-width=".26458">$T_3$</tspan></text><path d="m16.712 38.768-10.778 21.761 20.843-5.9123z" fill="none" stroke="#f9a30d" stroke-linecap="round" stroke-linejoin="round" stroke-width=".34396" style="paint-order:markers stroke fill"/><path d="m32.351 5.9528-15.027 31.74 10.288 16.337z" fill="none" stroke="#f9a30d" stroke-linecap="round" stroke-linejoin="round" stroke-opacity=".6" stroke-width=".34396" style="paint-order:markers stroke fill"/><path d="m32.929 6.7096 30.306 37.826-34.39 9.3784z" fill="none" stroke="#f9a30d" stroke-linecap="round" stroke-linejoin="round" stroke-opacity=".3" stroke-width=".34396" style="paint-order:markers stroke fill"/><text x="21.435976" y="29.971308" fill="#000000" font-family="'MonaspiceNe Nerd Font'" font-size="2.6458px" stroke-width=".26458" xml:space="preserve"><tspan x="21.435976" y="29.971308" stroke-width=".26458">$T_2$</tspan></text></svg>
